PathFileType	4	(X/Y/Z)	65_1_34_p1_0-366.trc
DataRate	CameraRate	NumFrames	NumMarkers	Units	OrigDataRate	OrigDataStartFrame	OrigNumFrames
59.0	59.0	6	27	m	59.0	229	367
Frame#	Time	RHip			RKnee			RAnkle			RBigToe			RSmallToe			RHeel			LHip			LKnee			LAnkle			LBigToe			LSmallToe			LHeel			Neck			Head			Nose			RShoulder			RElbow			RWrist			RThumb			RIndex			RPinky			LShoulder			LElbow			LWrist			LThumb			LIndex			LPinky			
		X1	Y1	Z1	X2	Y2	Z2	X3	Y3	Z3	X4	Y4	Z4	X5	Y5	Z5	X6	Y6	Z6	X7	Y7	Z7	X8	Y8	Z8	X9	Y9	Z9	X10	Y10	Z10	X11	Y11	Z11	X12	Y12	Z12	X13	Y13	Z13	X14	Y14	Z14	X15	Y15	Z15	X16	Y16	Z16	X17	Y17	Z17	X18	Y18	Z18	X19	Y19	Z19	X20	Y20	Z20	X21	Y21	Z21	X22	Y22	Z22	X23	Y23	Z23	X24	Y24	Z24	X25	Y25	Z25	X26	Y26	Z26	X27	Y27	Z27	
229	3.8813559322033897	0.3965558289465506	0.7198422552696667	0.28140620400683414	0.3874460984980071	0.8903925108030322	0.7122610084635864	0.3472959786193466	1.0528424294682186	1.1188563311047435	0.2748679467717924	0.8129783353087179	1.2042609091774206	0.3599654261623586	0.8078830751114975	1.192831939135549	0.3034191026828113	1.1569589545499857	1.1728622976020797	0.17612015270030776	0.7004042280450109	0.251365074315202	0.1465727824746154	0.8783054490191644	0.6817958349915746	0.12525824209866684	1.0187794830380763	1.0853212595352737	0.13460864865458896	0.8425091115588633	1.176411120767291	0.07211494260213258	0.8852667474366256	1.1662805277941564	0.147439762478597	1.13295952719391	1.1342328234166827	0.4536893582665181	0.4037464403805053	-0.20918454696875713	0.6395525629641419	0.1507355731675675	-0.37367733867143543	0.5412228243697677	0.18783145596099565	-0.2098982151382452	0.5765036810210468	0.46619416597861835	-0.1418907559553253	0.724392472215005	0.5008288004860226	0.11278464644864308	0.7395185895025906	0.21269398236781725	0.2803085731867898	0.6831869962297331	0.0836598102875982	0.35100102491966595	0.7520226320450849	0.12964136465679013	0.4199573946692524	0.7682657746102495	0.20283670395488462	0.4248838458671196	0.28121506363944454	0.37151506954225694	-0.2800866713461564	0.13369223743394248	0.23933726044488945	-0.05697597400251971	0.36591251775357747	0.14460374254003927	-0.10177015192695735	0.46132859826347294	0.12089531133032334	-0.14619974857117282	0.4632981765799314	0.09435645935367387	-0.17485112731371485	0.4169528645077051	0.05511844570874484	-0.1538756268190475
230	3.8983050847457625	0.39283436830501045	0.7062697395217394	0.28099092974401185	0.3876163834163266	0.8902052590047718	0.712192210779138	0.3481155551936146	1.047429196372231	1.1087110186457656	0.27531439919870687	0.8162113927732366	1.2049201635117608	0.360514342847297	0.8119895184339431	1.1932143166399032	0.30347262074547215	1.1570622586666264	1.17249619671154	0.17903649537374783	0.7150384880753731	0.25165798189554034	0.14141362071707375	0.8938244891685257	0.6835285782425328	0.12527779484421228	1.0188432949544608	1.0852657446738618	0.13464409757579643	0.8426964503658475	1.1764104218737115	0.07203872932834876	0.885628406025827	1.1663982637669368	0.14739520101514272	1.1336470944703005	1.1343009826173553	0.45003027736304246	0.4038938265165744	-0.20953814572369664	0.6396335247396885	0.15015691227965572	-0.3736884188004735	0.5412520320801086	0.18676609815737977	-0.21300776330117083	0.5764390070878846	0.46653546658977463	-0.14206355615661978	0.7236915285064806	0.5023099526585932	0.116076312153926	0.7340188809945297	0.22565431030525662	0.2832297474986163	0.6800111015113764	0.11366598146949602	0.3579650609056836	0.7502544553233377	0.14120044757454417	0.42075672654247226	0.7527761038667631	0.2201160050019554	0.4254131178060493	0.28423521258523815	0.382878908550593	-0.2820622259758153	0.13843000143600248	0.22859488819523469	-0.058380445315843105	0.3768057667452784	0.13577579925811323	-0.10249592087849077	0.46954662160562344	0.10858217471015337	-0.15353090408907363	0.4780793875976824	0.053334822785470436	-0.16688731113775945	0.42896473613146335	0.01655675300440569	-0.14211424067208178
231	3.9152542372881354	0.39263035625161696	0.706491009310918	0.28087595544937155	0.3839742595255594	0.8784000881253621	0.7145211343043756	0.3440324759365683	1.0495760593906776	1.1135613770208193	0.27533402952466984	0.8139012485368338	1.2045372635714195	0.35910675416849414	0.8105579328157039	1.1968103215192802	0.3049080309437101	1.1545672804895168	1.168440647005925	0.17905188045035442	0.7149865427149882	0.2515996070563468	0.14265778620691652	0.8927055433495209	0.6796093590946527	0.12530166630238873	1.0191885682048472	1.085468902072911	0.1346046980891175	0.8425347827291831	1.1764332736389362	0.07204057209912586	0.8858210488769813	1.1664851978669382	0.14744329873352283	1.133620557560933	1.1344091444173146	0.45310253119217136	0.39060363503480705	-0.20861901485564832	0.6394991132299793	0.1485209019337192	-0.37667534644869555	0.5344774452583329	0.1877672508727906	-0.2107620774704037	0.5762867562272679	0.4667150652301453	-0.1383643909829537	0.7221076839997667	0.5156618188067013	0.11196300983732216	0.7252419116668885	0.2508549384997115	0.28955457028345455	0.6600360105489547	0.10261261647719606	0.34790066548420845	0.7460268171469729	0.14062975514744644	0.4202698624529422	0.745993894787826	0.2323774789347716	0.4256606919008259	0.28042226161479544	0.37993472647839777	-0.2854385334529591	0.1423485367499717	0.22875441915869835	-0.058361599075395613	0.3849772265732783	0.13794698196584812	-0.09871223580585224	0.47214267877959937	0.09264877405978897	-0.14191363453595976	0.48670718072245955	0.036098724143361294	-0.15553592927967147	0.44656941687020035	0.004197951122676422	-0.12874128853705058
232	3.9322033898305087	0.38880177363769086	0.6926543327607279	0.2805505267277234	0.38340329820538643	0.8758375281462386	0.7099696773068365	0.3487188264743155	1.0510220277180478	1.1138832163442016	0.2720082934104124	0.7966891138557698	1.2039434771982536	0.3589611040699105	0.8100323665310865	1.1967258892126311	0.30490047504714923	1.1546679161168623	1.168032460684809	0.17904526362634596	0.7151432156218785	0.25143400326482074	0.14258615979092457	0.8926362337524256	0.6794723618099473	0.11986475869105444	1.0360271996731616	1.0891763408257646	0.13456085852446512	0.8428540864059604	1.1764844775799466	0.0665791257565194	0.9021696544849707	1.1707803200013398	0.1473102722306186	1.1338416805259484	1.1344481217315796	0.44958218376099995	0.4020411193062935	-0.21004285083672844	0.6397001541879345	0.14807138498575445	-0.37690495234728727	0.5312943896512038	0.18756546463877288	-0.21066685418004555	0.5698653431644113	0.46807095782795793	-0.1431223745807092	0.7184908034225748	0.5440098492271962	0.1063361500830756	0.717128651897406	0.27799852138645575	0.29277348415844806	0.6478015546196201	0.13129066132057252	0.3541959849431869	0.7398953285582696	0.14416851032453762	0.41988652214244426	0.7416204552306478	0.2363545733987022	0.4289417052680532	0.28433891276481943	0.3695026691310573	-0.2794552971767073	0.1434369000716884	0.22728866555714147	-0.061043327340658184	0.38856106647414423	0.1263230196162072	-0.096258892935508	0.47374990370688036	0.06301523778442324	-0.12975365284812046	0.486432650528868	0.019642836203348515	-0.14300849529945053	0.46891289860531926	0.001626017892103185	-0.1007409304696986
233	3.9491525423728815	0.39241628876044443	0.7057332329025144	0.28107850052924727	0.38364622939677306	0.8765506202352622	0.7061505266184493	0.3440704981810856	1.0495027413650306	1.113226530593332	0.2720708946738873	0.7968948315377872	1.2040372962292911	0.35916945429950886	0.8104494681966875	1.1968055579608519	0.30494475751753347	1.154627067944887	1.1680183420630454	0.17609746147885558	0.7006289078060229	0.2510892378437412	0.14136911085523216	0.8939261235732049	0.6834528711541052	0.11986024024003483	1.0359559211229743	1.0890873804999457	0.13463544269784297	0.8426598627196888	1.1764959265970802	0.07221901740648973	0.8855705396299519	1.1663056517068537	0.1471703346034135	1.1327081845318805	1.1340011732882893	0.45355175915397283	0.3900997120294798	-0.20763228693951255	0.6359553126933798	0.14800460259916196	-0.37742069939833295	0.5309049385412181	0.18808925591237297	-0.21104016513737728	0.5788495723051752	0.481544535258644	-0.14470904358191963	0.720559187044454	0.5596252693037559	0.10849959091851122	0.7032307913472323	0.2827798454767082	0.29527318940858405	0.6528752258603693	0.157442965019836	0.3578610064801011	0.7377790037094519	0.15590841603157626	0.4203251966529076	0.7417315837623163	0.23565276635316484	0.4283490507442883	0.2844539976429975	0.36945159379494824	-0.2794724687104913	0.14849500425533887	0.21632504563005533	-0.06549617327189175	0.39766578862170143	0.09624909932353694	-0.0840990100019141	0.48096070043833566	0.03512464646084483	-0.10920846709820209	0.48826462476522337	0.011151855227078266	-0.1305726228847825	0.47254178845146827	-0.00523872016489915	-0.08616905087000759
234	3.9661016949152543	0.39204371296454416	0.7028717834510131	0.2772546799244294	0.38781220103297026	0.8911127533618152	0.7083162227774803	0.3474972473661423	1.0529934969891779	1.1183111902402996	0.2719024623427704	0.7982248226472717	1.2042343859197924	0.35894267159071724	0.8121097341370852	1.1970083739299902	0.3036229168403828	1.1580685139097466	1.1686783417701134	0.17611343589992257	0.7005887312588569	0.2510384381184025	0.14255569434691848	0.8925822189805989	0.6796212570875528	0.1198995445319961	1.0361238324856685	1.08912152977108	0.13465942194131872	0.8425632939040673	1.1765272478358604	0.06687611481838812	0.9017700776443809	1.1706401787289307	0.1470370455348475	1.1332302259561633	1.1341614253324126	0.45700792457615164	0.3900678839534114	-0.20798896876461612	0.6360127529769848	0.14809507733948732	-0.37723095306979	0.5307003154817139	0.18835488534616254	-0.21407871968992156	0.5786169207536631	0.47979278304159323	-0.14401635089220177	0.71825033164868	0.575021120985212	0.10722871796906157	0.696988407181518	0.29494920911721084	0.29488469085872027	0.6404928815659695	0.14744137893850795	0.3495324899158187	0.7204640865052071	0.18034472016241415	0.41471437102661834	0.7361742057566827	0.2454124660396055	0.4259873285770481	0.2815109968753175	0.35554545425981987	-0.2808488654876736	0.1532943202463544	0.21532350791809382	-0.06790666389386515	0.4040450011516237	0.07590675424853499	-0.0810023837427592	0.4799559337354824	0.016587901387826818	-0.10043161032542514	0.4900051798051645	-0.004830133870199097	-0.11760154613932053	0.4757668449967877	0.00324471472419832	-0.08141581564045935
